# xmcd CD database file
#
# Track frame offsets:
#	150
#	23555
#	83439
#	104496
#	139741
#	170452
#	202959
#	220810
#	244464
#	273565
#	297534
#	315587
#
# Disc length: 4452 seconds
#
# Revision: 0
# Processed by: cddbd v1.5.2PL0 Copyright (c) Steve Scherf et al.
# Submitted via: CDex 1.70beta2
#
DISCID=ad11620c
DTITLE=Anna Trökes - Yogo für Schwangere
DYEAR=2008
DGENRE=New Age
TTITLE0=Nach innen gehen
TTITLE1=Das Kind in Klang einhüllen
TTITLE2=Beckenkreisen im Vierfüßlerstand
TTITLE3=Katze und Frosch
TTITLE4=Sich drehen und dehnen aus dem Vierfüßlerstand
TTITLE5=Vedischer Sonnengruß
TTITLE6=Beckenkreisen im Stand
TTITLE7=Kraftvolle Haltung
TTITLE8=Heldin
TTITLE9=Hündin
TTITLE10=Den Beckenboden aktivieren
TTITLE11=Entspannungshaltung in Seitenlage
EXTD=YEAR: 2008
EXTT0=
EXTT1=
EXTT2=
EXTT3=
EXTT4=
EXTT5=
EXTT6=
EXTT7=
EXTT8=
EXTT9=
EXTT10=
EXTT11=
PLAYORDER=
